<?xml version="1.0" encoding="iso-8859-1"?>
<!-- Generator: Adobe Illustrator 19.0.0, SVG Export Plug-In . SVG Version: 6.00 Build 0)  -->
<svg version="1.1" id="Capa_1" xmlns="http://www.w3.org/2000/svg" xmlns:xlink="http://www.w3.org/1999/xlink" x="0px" y="0px"
	 viewBox="0 0 512 512" style="enable-background:new 0 0 512 512;" xml:space="preserve">
<g>
	<g>
		<path d="M256,0C114.837,0,0,114.837,0,256s114.837,256,256,256s256-114.837,256-256S397.163,0,256,0z M256,490.667
			c-129.387,0-234.667-105.28-234.667-234.667S126.613,21.333,256,21.333S490.667,126.613,490.667,256S385.387,490.667,256,490.667z
			"/>
	</g>
</g>
<g>
	<g>
		<path d="M160,149.333c-17.643,0-32,14.357-32,32c0,17.643,14.357,32,32,32s32-14.357,32-32
			C192,163.691,177.643,149.333,160,149.333z M160,192c-5.867,0-10.667-4.779-10.667-10.667s4.8-10.667,10.667-10.667
			c5.867,0,10.667,4.779,10.667,10.667S165.867,192,160,192z"/>
	</g>
</g>
<g>
	<g>
		<path d="M169.877,198.635c-3.307-8.021-16.469-8.021-19.755,0C144.939,211.328,128,253.781,128,266.667c0,17.643,14.357,32,32,32
			s32-14.357,32-32C192,253.781,175.061,211.328,169.877,198.635z M160,277.333c-5.867,0-10.667-4.779-10.667-10.667
			c0.064-4.075,4.715-18.389,10.667-34.56c5.952,16.171,10.603,30.485,10.667,34.56C170.667,272.555,165.867,277.333,160,277.333z"
			/>
	</g>
</g>
<g>
	<g>
		<path d="M352,149.333c-17.643,0-32,14.357-32,32c0,17.643,14.357,32,32,32c17.643,0,32-14.357,32-32
			C384,163.691,369.643,149.333,352,149.333z M352,192c-5.867,0-10.667-4.779-10.667-10.667s4.8-10.667,10.667-10.667
			c5.867,0,10.667,4.779,10.667,10.667S357.867,192,352,192z"/>
	</g>
</g>
<g>
	<g>
		<path d="M381.717,388.907C354.048,345.771,307.072,320,256,320s-98.048,25.771-125.696,68.907
			c-3.2,4.971-1.728,11.563,3.221,14.741c4.907,3.157,11.52,1.771,14.72-3.221c23.723-36.992,64-59.093,107.755-59.093
			s84.032,22.101,107.755,59.093c2.048,3.179,5.483,4.907,8.981,4.907c1.963,0,3.968-0.533,5.76-1.685
			C383.445,400.469,384.896,393.877,381.717,388.907z"/>
	</g>
</g>
<g>
</g>
<g>
</g>
<g>
</g>
<g>
</g>
<g>
</g>
<g>
</g>
<g>
</g>
<g>
</g>
<g>
</g>
<g>
</g>
<g>
</g>
<g>
</g>
<g>
</g>
<g>
</g>
<g>
</g>
</svg>
