<?xml version="1.0" encoding="iso-8859-1"?>
<!-- Generator: Adobe Illustrator 19.0.0, SVG Export Plug-In . SVG Version: 6.00 Build 0)  -->
<svg version="1.1" id="Capa_1" xmlns="http://www.w3.org/2000/svg" xmlns:xlink="http://www.w3.org/1999/xlink" x="0px" y="0px"
	 viewBox="0 0 512 512" style="enable-background:new 0 0 512 512;" xml:space="preserve">
<g>
	<g>
		<path d="M256,0C114.837,0,0,114.837,0,256s114.837,256,256,256s256-114.837,256-256S397.163,0,256,0z M256,490.667
			c-129.387,0-234.667-105.28-234.667-234.667S126.613,21.333,256,21.333S490.667,126.613,490.667,256S385.387,490.667,256,490.667z
			"/>
	</g>
</g>
<g>
	<g>
		<path d="M160,149.333c-17.643,0-32,14.357-32,32c0,17.643,14.357,32,32,32s32-14.357,32-32
			C192,163.691,177.643,149.333,160,149.333z M160,192c-5.888,0-10.667-4.779-10.667-10.667s4.779-10.667,10.667-10.667
			s10.667,4.779,10.667,10.667S165.888,192,160,192z"/>
	</g>
</g>
<g>
	<g>
		<path d="M352,149.333c-17.643,0-32,14.357-32,32c0,17.643,14.357,32,32,32c17.643,0,32-14.357,32-32
			C384,163.691,369.643,149.333,352,149.333z M352,192c-5.888,0-10.667-4.779-10.667-10.667s4.779-10.667,10.667-10.667
			c5.888,0,10.667,4.779,10.667,10.667S357.888,192,352,192z"/>
	</g>
</g>
<g>
	<g>
		<path d="M381.717,388.907C354.048,345.771,307.051,320,256,320s-98.048,25.771-125.696,68.907
			c-3.179,4.971-1.728,11.563,3.221,14.741s11.563,1.707,14.741-3.221c23.723-36.992,63.979-59.093,107.733-59.093
			c43.733,0,84.011,22.101,107.755,59.093c2.027,3.179,5.461,4.907,8.981,4.907c1.963,0,3.968-0.533,5.76-1.685
			C383.467,400.469,384.896,393.856,381.717,388.907z"/>
	</g>
</g>
<g>
</g>
<g>
</g>
<g>
</g>
<g>
</g>
<g>
</g>
<g>
</g>
<g>
</g>
<g>
</g>
<g>
</g>
<g>
</g>
<g>
</g>
<g>
</g>
<g>
</g>
<g>
</g>
<g>
</g>
</svg>
