<?xml version="1.0" encoding="iso-8859-1"?>
<!-- Generator: Adobe Illustrator 19.0.0, SVG Export Plug-In . SVG Version: 6.00 Build 0)  -->
<svg version="1.1" id="Capa_1" xmlns="http://www.w3.org/2000/svg" xmlns:xlink="http://www.w3.org/1999/xlink" x="0px" y="0px"
	 viewBox="0 0 512 512" style="enable-background:new 0 0 512 512;" xml:space="preserve">
<g>
	<g>
		<path d="M256,0C114.837,0,0,114.837,0,256s114.837,256,256,256s256-114.837,256-256S397.163,0,256,0z M256,490.667
			c-129.387,0-234.667-105.28-234.667-234.667S126.613,21.333,256,21.333S490.667,126.613,490.667,256S385.387,490.667,256,490.667z
			"/>
	</g>
</g>
<g>
	<g>
		<path d="M160,149.333c-17.643,0-32,14.357-32,32c0,17.643,14.357,32,32,32s32-14.357,32-32
			C192,163.691,177.643,149.333,160,149.333z M160,192c-5.888,0-10.667-4.779-10.667-10.667s4.779-10.667,10.667-10.667
			s10.667,4.779,10.667,10.667S165.888,192,160,192z"/>
	</g>
</g>
<g>
	<g>
		<path d="M352,149.333c-17.643,0-32,14.357-32,32c0,17.643,14.357,32,32,32c17.643,0,32-14.357,32-32
			C384,163.691,369.643,149.333,352,149.333z M352,192c-5.888,0-10.667-4.779-10.667-10.667s4.779-10.667,10.667-10.667
			c5.888,0,10.667,4.779,10.667,10.667S357.888,192,352,192z"/>
	</g>
</g>
<g>
	<g>
		<path d="M378.496,321.685c-4.971-3.2-11.563-1.728-14.741,3.221C340.011,361.899,299.733,384,256,384
			s-84.011-22.101-107.755-59.093c-3.179-4.971-9.813-6.421-14.741-3.221c-4.971,3.179-6.4,9.792-3.221,14.741
			c27.669,43.136,74.667,68.907,125.717,68.907s98.048-25.771,125.717-68.907C384.896,331.456,383.445,324.864,378.496,321.685z"/>
	</g>
</g>
<g>
</g>
<g>
</g>
<g>
</g>
<g>
</g>
<g>
</g>
<g>
</g>
<g>
</g>
<g>
</g>
<g>
</g>
<g>
</g>
<g>
</g>
<g>
</g>
<g>
</g>
<g>
</g>
<g>
</g>
</svg>
